<svg xmlns="http://www.w3.org/2000/svg" width="32" height="32" viewBox="0 0 36 36">
  <circle fill="#FF9B40" cx="18" cy="18" r="18"/>
  <path fill="#FF7F1F" d="M18 0c9.941 0 18 8.059 18 18S27.941 36 18 36c-2.809 0-5.468-.644-7.835-1.791C15.986 32.835 21.518 31.557 26 28c6.854-5.445 7.973-13.502 5-21C27.361 2.092 22.897 0 18 0z"/>
  <path fill="#77B255" d="M11 6c-.825 0-1.5.675-1.5 1.5S10.175 9 11 9s1.5-.675 1.5-1.5S11.825 6 11 6M16 4c-.825 0-1.5.675-1.5 1.5S15.175 7 16 7s1.5-.675 1.5-1.5S16.825 4 16 4"/>
</svg>